<svg width="534" height="127" viewBox="0 0 534 127" fill="none" xmlns="http://www.w3.org/2000/svg">
<path d="M0.513977 93.168L27.364 78.0573L0.513977 31.5027V93.168Z" fill="url(#paint0_linear)"/>
<path d="M0.513977 31.5028L27.364 46.8162L54.2133 0.465514L0.513977 31.5028Z" fill="url(#paint1_linear)"/>
<path d="M27.364 78.0574V46.816L0.513977 31.5027L27.364 78.0574Z" fill="#66686D"/>
<path d="M27.364 46.8162L54.2133 31.5028V0.465514L27.364 46.8162Z" fill="#66686D"/>
<path d="M56.2626 0.465514L83.1133 46.8162L109.963 31.5015L56.2626 0.465514Z" fill="url(#paint2_linear)"/>
<path d="M83.1133 78.0574L109.963 93.1667V31.5014L83.1133 78.0574Z" fill="url(#paint3_linear)"/>
<path d="M83.1133 46.816V78.0574L109.963 31.5014L83.1133 46.816Z" fill="#8BCF25"/>
<path d="M56.2626 31.5015L83.1133 46.8162L56.2626 0.465515V31.5015Z" fill="#8BCF25"/>
<path d="M54.1426 95.9667L27.6227 80.0907L0.583313 95.328L53.82 126.78L54.1426 95.9667Z" fill="url(#paint4_linear)"/>
<path d="M0.583313 95.3281L54.1426 95.9668L27.6227 80.0908L0.583313 95.3281Z" fill="#66686D"/>
<path d="M109.892 95.3147L82.9826 80.1067L56.3333 96.0133L109.841 126.035L109.892 95.3147Z" fill="#8BCF25"/>
<path d="M82.9826 80.1067L109.841 126.035L56.3333 96.0133L82.9826 80.1067Z" fill="url(#paint5_linear)"/>
<path d="M249.003 51.8973C249.003 63.6853 240.891 69.5813 224.668 69.5813C219.96 69.5813 215.915 69.2093 212.529 68.472C209.145 67.7333 206.353 66.624 204.156 65.144C201.957 63.668 200.343 61.8293 199.312 59.6306C198.281 57.432 197.767 54.8533 197.767 51.8973V29.896H209.787V51.8973C209.787 53.3386 209.981 54.544 210.371 55.5146C210.759 56.4893 211.489 57.2746 212.559 57.8773C213.629 58.484 215.136 58.9106 217.083 59.1613C219.027 59.4173 221.555 59.5426 224.668 59.5426C227.001 59.5426 228.947 59.4066 230.504 59.132C232.059 58.8613 233.304 58.4133 234.239 57.7906C235.172 57.168 235.844 56.372 236.252 55.3973C236.66 54.4266 236.864 53.26 236.864 51.8973V29.896H249.003V51.8973" fill="#100F0D"/>
<path d="M267.735 68.9387L275.028 58.9014H284.833C286 58.9014 287.216 58.9014 288.479 58.9014C289.743 58.9014 290.843 58.9401 291.777 59.0187C291.232 58.3174 290.599 57.4321 289.88 56.3614C289.16 55.2907 288.471 54.2894 287.808 53.3561L280.805 43.0254L262.483 68.9387H248.185L273.219 33.6321C274.036 32.5027 275.067 31.4934 276.312 30.5974C277.557 29.7014 279.133 29.2534 281.039 29.2534C282.867 29.2534 284.395 29.6734 285.62 30.5081C286.847 31.3467 287.885 32.3854 288.743 33.6321L313.135 68.9387H267.735" fill="#100F0D"/>
<path d="M357.017 69.5813C356.239 69.5813 355.472 69.4533 354.712 69.2013C353.953 68.9453 353.107 68.376 352.173 67.48L328.249 46.0013V68.9386H317.277V36.5493C317.277 35.2653 317.461 34.1586 317.832 33.224C318.2 32.2866 318.687 31.5293 319.291 30.9453C319.893 30.3626 320.592 29.936 321.392 29.6626C322.189 29.3906 323.015 29.2533 323.871 29.2533C324.609 29.2533 325.36 29.3813 326.119 29.6333C326.876 29.8853 327.743 30.4586 328.715 31.3546L352.641 52.8293V29.896H363.669V62.228C363.669 63.512 363.484 64.62 363.116 65.552C362.745 66.488 362.259 67.256 361.656 67.8573C361.053 68.4626 360.343 68.9 359.527 69.1733C358.709 69.444 357.872 69.5813 357.017 69.5813Z" fill="#100F0D"/>
<path d="M419.281 29.8961L411.463 40.0507H397.515V68.9387H385.435V40.0507H367.112L374.931 29.8961H419.281Z" fill="#100F0D"/>
<path d="M444.725 59.4253C447.76 59.4253 450.328 59.3 452.428 59.0466C454.529 58.7946 456.231 58.296 457.533 57.5573C458.837 56.82 459.781 55.7986 460.364 54.4946C460.948 53.1893 461.24 51.4893 461.24 49.3866C461.24 47.2853 460.948 45.5853 460.364 44.28C459.781 42.9786 458.837 41.968 457.533 41.2466C456.231 40.528 454.529 40.0413 452.428 39.7893C450.328 39.536 447.76 39.408 444.725 39.408C441.692 39.408 439.124 39.536 437.023 39.7893C434.921 40.0413 433.22 40.528 431.917 41.2466C430.613 41.968 429.669 42.9786 429.087 44.28C428.503 45.5853 428.211 47.2853 428.211 49.3866C428.211 51.4893 428.503 53.1893 429.087 54.4946C429.669 55.7986 430.613 56.82 431.917 57.5573C433.22 58.296 434.921 58.7946 437.023 59.0466C439.124 59.3 441.692 59.4253 444.725 59.4253ZM444.725 29.2533C454.217 29.2533 461.347 30.868 466.113 34.0986C470.877 37.328 473.26 42.424 473.26 49.3866C473.26 56.3906 470.887 61.508 466.143 64.7347C461.395 67.9667 454.256 69.5813 444.725 69.5813C435.155 69.5813 428.007 67.9667 423.28 64.7347C418.553 61.508 416.191 56.3906 416.191 49.3866C416.191 42.424 418.563 37.328 423.309 34.0986C428.055 30.868 435.193 29.2533 444.725 29.2533Z" fill="#100F0D"/>
<path d="M163.628 58.7801C166.664 58.7801 169.231 58.6561 171.332 58.4028C173.432 58.1508 175.133 57.6534 176.437 56.9134C177.74 56.1761 178.684 55.1561 179.268 53.8521C179.851 52.5467 180.143 50.8454 180.143 48.7441C180.143 46.6427 179.851 44.9414 179.268 43.6374C178.684 42.3347 177.74 41.3254 176.437 40.6041C175.133 39.8841 173.432 39.3974 171.332 39.1454C169.231 38.8921 166.664 38.7654 163.628 38.7654C160.595 38.7654 158.027 38.8921 155.925 39.1454C153.825 39.3974 152.123 39.8841 150.82 40.6041C149.516 41.3254 148.572 42.3347 147.989 43.6374C147.405 44.9414 147.113 46.6427 147.113 48.7441C147.113 50.8454 147.405 52.5467 147.989 53.8521C148.572 55.1561 149.516 56.1761 150.82 56.9134C152.123 57.6534 153.825 58.1508 155.925 58.4028C158.027 58.6561 160.595 58.7801 163.628 58.7801ZM163.628 28.6107C173.12 28.6107 180.249 30.2241 185.016 33.4561C189.78 36.6854 192.164 41.7801 192.164 48.7441C192.164 55.7467 189.789 60.8654 185.045 64.0921C180.297 67.3241 173.16 68.9387 163.628 68.9387C154.057 68.9387 146.909 67.3241 142.183 64.0921C137.456 60.8654 135.093 55.7467 135.093 48.7441C135.093 41.7801 137.465 36.6854 142.212 33.4561C146.957 30.2241 154.096 28.6107 163.628 28.6107Z" fill="#100F0D"/>
<path d="M532.259 29.8961L519.947 41.1614C518.584 42.4067 517.436 43.4454 516.503 44.2801C515.569 45.1187 514.771 45.8201 514.111 46.3827C513.448 46.9467 512.893 47.4134 512.448 47.7841C512 48.1534 511.6 48.4734 511.252 48.7467C511.6 48.9787 511.988 49.2707 512.419 49.6227C512.845 49.9707 513.411 50.4681 514.111 51.1081C514.809 51.7521 515.687 52.5587 516.737 53.5307C517.787 54.5054 519.108 55.7294 520.704 57.2081L533.193 68.9387H516.152L502.848 56.0414L489.135 68.9387H474.137L486.859 57.2081C488.336 55.8454 489.581 54.7081 490.592 53.7947C491.604 52.8801 492.44 52.1294 493.103 51.5467C493.763 50.9627 494.317 50.4961 494.765 50.1454C495.212 49.7961 495.611 49.4867 495.963 49.2134C495.611 48.9414 495.223 48.6401 494.795 48.3094C494.365 47.9787 493.821 47.5121 493.16 46.9081C492.499 46.3041 491.663 45.5467 490.651 44.6321C489.64 43.7174 488.375 42.5414 486.859 41.1014L474.896 29.8961H491.643L504.073 42.0361L516.62 29.8961H532.259Z" fill="#100F0D"/>
<path d="M189.323 59.9814L178.928 54.1534L160.209 58.7307L189.299 74.988L189.323 59.9814Z" fill="#8BCF25"/>
<path d="M178.928 54.1534L189.299 74.988L160.209 58.7307L178.928 54.1534Z" fill="url(#paint6_linear)"/>
<path d="M144.851 97.068C143.819 98.1 142.231 98.52 140.565 98.52C139.131 98.52 137.619 98.1374 136.509 97.124C135.707 96.396 135.093 95.2467 135.093 93.9667H137.619C137.619 94.6373 137.925 95.2293 138.328 95.632C138.9 96.2067 139.82 96.3587 140.604 96.3587C141.541 96.3587 142.441 96.168 142.957 95.632C143.264 95.3067 143.493 94.9813 143.493 94.3293C143.493 93.3347 142.728 92.8774 141.887 92.724C140.967 92.5507 139.78 92.512 138.881 92.3587C137.007 92.0534 135.439 90.8294 135.439 88.572C135.439 87.5 135.917 86.6014 136.624 85.892C137.524 85.012 139.016 84.4574 140.604 84.4574C142.059 84.4574 143.473 84.9147 144.392 85.7774C145.195 86.544 145.751 87.5387 145.769 88.668H143.245C143.225 88.1894 142.976 87.672 142.651 87.328C142.212 86.8694 141.311 86.6014 140.584 86.6014C139.82 86.6014 138.94 86.7733 138.385 87.3453C138.097 87.6547 137.925 87.9974 137.925 88.4947C137.925 89.3747 138.499 89.8347 139.303 89.968C140.165 90.1027 141.369 90.1987 142.249 90.3133C144.277 90.5987 145.98 91.9187 145.98 94.236C145.98 95.496 145.521 96.396 144.851 97.068" fill="#8BCF25"/>
<path d="M155.183 87.596C154.647 87.02 153.824 86.696 153.039 86.696C152.255 86.696 151.432 87.02 150.896 87.596C149.959 88.572 149.921 90.2547 149.921 91.5C149.921 92.7427 149.959 94.408 150.896 95.3827C151.432 95.9573 152.255 96.2813 153.039 96.2813C153.824 96.2813 154.647 95.9573 155.183 95.3827C156.12 94.408 156.159 92.7427 156.159 91.5C156.159 90.2547 156.12 88.572 155.183 87.596ZM156.943 96.9907C155.909 98.0227 154.493 98.52 153.039 98.52C151.585 98.52 150.169 98.0227 149.137 96.9907C147.664 95.5174 147.415 93.7173 147.415 91.5C147.415 89.2787 147.664 87.4627 149.137 85.9894C150.169 84.9534 151.585 84.4574 153.039 84.4574C154.493 84.4574 155.909 84.9534 156.943 85.9894C158.417 87.4627 158.665 89.2787 158.665 91.5C158.665 93.7173 158.417 95.5174 156.943 96.9907Z" fill="#8BCF25"/>
<path d="M163.525 86.9453V90.58H169.685V92.8186H163.525V98.272H161.056V84.7053H170.431V86.9453H163.525Z" fill="#8BCF25"/>
<path d="M177.319 87.0013V98.272H174.851V87.0013H170.833V84.7053H181.336V87.0013H177.319Z" fill="#8BCF25"/>
<path d="M195.112 98.272H192.644L189.812 88.916L186.98 98.272H184.512L181.777 84.7053H184.131L186.025 94.1386L188.817 84.9146H190.884L193.62 94.1386L195.553 84.7053H197.809L195.112 98.272Z" fill="#8BCF25"/>
<path d="M203.913 87.7293L201.98 93.4506H205.845L203.913 87.7293ZM207.491 98.272L206.611 95.672H201.216L200.335 98.272H197.848L202.612 84.7053H205.309L210.073 98.272H207.491Z" fill="#8BCF25"/>
<path d="M217.383 86.8693H214.129V90.924H217.42C218.817 90.924 219.621 90.1986 219.621 88.916C219.621 87.8253 218.779 86.8693 217.383 86.8693V86.8693ZM219.411 98.272L217.153 93.144H214.149V98.272H211.661V84.7053H217.383C220.616 84.7053 222.089 86.7346 222.089 88.916C222.089 90.7346 221.095 92.168 219.603 92.724L222.089 98.272H219.411" fill="#8BCF25"/>
<path d="M224.269 98.272V84.7053H233.932V86.9453H226.739V90.1026H233.071V92.3226H226.739V96.0333H233.932V98.272H224.269Z" fill="#8BCF25"/>
<path d="M247.477 87.6906C247.019 87.2306 246.348 86.9266 245.564 86.9266H242.751V96.0506H245.564C246.348 96.0506 247.019 95.7453 247.477 95.2866C248.435 94.3293 248.453 92.724 248.453 91.4786C248.453 90.236 248.435 88.648 247.477 87.6906ZM249.372 96.8173C248.472 97.7546 247.113 98.272 245.564 98.272H240.283V84.7053H245.564C247.113 84.7053 248.472 85.2226 249.372 86.1613C250.768 87.596 250.96 89.604 250.96 91.4786C250.96 93.3533 250.768 95.3826 249.372 96.8173" fill="#8BCF25"/>
<path d="M253.369 98.272V84.7053H263.032V86.9453H255.839V90.1026H262.171V92.3226H255.839V96.0333H263.032V98.272H253.369Z" fill="#8BCF25"/>
<path d="M271.011 98.272H268.293L263.797 84.7053H266.419L269.709 95.0573L272.98 84.7053H275.469L271.011 98.272Z" fill="#8BCF25"/>
<path d="M277.055 98.272V84.7053H286.717V86.9453H279.524V90.1026H285.857V92.3226H279.524V96.0333H286.717V98.272H277.055Z" fill="#8BCF25"/>
<path d="M289.071 98.272V84.7053H291.537V95.9373H297.833V98.272H289.071Z" fill="#8BCF25"/>
<path d="M306.1 87.596C305.564 87.02 304.741 86.696 303.957 86.696C303.172 86.696 302.349 87.02 301.813 87.596C300.876 88.572 300.837 90.2547 300.837 91.5C300.837 92.7427 300.876 94.408 301.813 95.3827C302.349 95.9573 303.172 96.2813 303.957 96.2813C304.741 96.2813 305.564 95.9573 306.1 95.3827C307.036 94.408 307.075 92.7427 307.075 91.5C307.075 90.2547 307.036 88.572 306.1 87.596ZM307.86 96.9907C306.827 98.0227 305.411 98.52 303.957 98.52C302.503 98.52 301.087 98.0227 300.053 96.9907C298.58 95.5174 298.332 93.7173 298.332 91.5C298.332 89.2787 298.58 87.4627 300.053 85.9894C301.087 84.9534 302.503 84.4574 303.957 84.4574C305.411 84.4574 306.827 84.9534 307.86 85.9894C309.333 87.4627 309.583 89.2787 309.583 91.5C309.583 93.7173 309.333 95.5174 307.86 96.9907Z" fill="#8BCF25"/>
<path d="M317.196 86.8693H314.42V91.2493H317.196C318.841 91.2493 319.587 90.3693 319.587 89.0693C319.587 87.7693 318.841 86.8693 317.196 86.8693ZM317.291 93.412H314.42V98.272H311.973V84.7053H317.291C320.411 84.7053 322.075 86.4466 322.075 89.0493C322.075 91.652 320.411 93.412 317.291 93.412Z" fill="#8BCF25"/>
<path d="M335.143 98.272V88.5906L331.621 98.08H329.804L326.304 88.476V98.272H323.911V84.7053H327.241L330.799 94.368L334.376 84.7053H337.533V98.272H335.143" fill="#8BCF25"/>
<path d="M340.709 98.272V84.7053H350.372V86.9453H343.177V90.1026H349.511V92.3226H343.177V96.0333H350.372V98.272H340.709Z" fill="#8BCF25"/>
<path d="M361.029 98.272L355.155 88.956V98.272H352.724V84.7053H355.345L361.143 93.892V84.7053H363.575V98.272H361.029" fill="#8BCF25"/>
<path d="M371.759 87.0013V98.272H369.292V87.0013H365.276V84.7053H375.777V87.0013H371.759" fill="#8BCF25"/>
<path d="M385.343 86.3908C384.561 86.3908 383.833 86.8694 383.833 87.8068C383.833 88.6868 384.561 89.3188 385.113 89.8921C385.956 89.4348 386.857 88.9921 386.857 87.8641C386.857 86.9268 386.207 86.3908 385.343 86.3908V86.3908ZM384.485 92.2841C383.584 92.8188 382.877 93.2788 382.877 94.4268C382.877 95.8228 384.027 96.5508 385.304 96.5508C386.112 96.5508 386.989 96.3588 387.585 95.7081C386.532 94.5588 385.535 93.4321 384.485 92.2841ZM389.975 98.2908L389.019 97.2201C387.927 98.1761 386.572 98.6348 385.173 98.6348C382.76 98.6348 380.675 97.0681 380.675 94.5214C380.675 92.8388 381.651 91.6721 383.085 90.7908C382.225 89.8534 381.633 89.1081 381.633 87.8454C381.633 85.6988 383.296 84.4174 385.343 84.4174C387.316 84.4174 389.093 85.6414 389.093 87.7694C389.093 89.5281 388.021 90.5428 386.532 91.4028L388.885 93.9668C389.115 93.5468 389.191 92.9334 389.229 92.3028C389.268 91.6894 389.268 91.0574 389.268 90.6374H392.769V92.5321H391.2C391.143 93.5854 390.951 94.6748 390.376 95.5734C391.24 96.4921 392.041 97.3908 392.881 98.2908H389.975" fill="#8BCF25"/>
<path d="M399.197 98.272V84.7053H401.703V98.272H399.197Z" fill="#8BCF25"/>
<path d="M409.891 87.0013V98.272H407.423V87.0013H403.407V84.7053H413.909V87.0013H409.891Z" fill="#8BCF25"/>
<path d="M427.724 96.912C426.708 97.9453 425.292 98.52 423.84 98.52C422.388 98.52 421.028 98.0414 419.996 97.0094C418.52 95.536 418.309 93.7173 418.309 91.5C418.309 89.2787 418.52 87.4627 419.996 85.9894C421.028 84.9534 422.388 84.4574 423.84 84.4574C425.292 84.4574 426.708 84.992 427.724 86.0254C428.505 86.8294 428.911 87.9014 429.025 88.9734H426.5C426.44 88.38 426.231 87.9587 425.884 87.5387C425.448 86.984 424.68 86.696 423.84 86.696C423.056 86.696 422.287 87.02 421.753 87.596C420.816 88.572 420.816 90.2547 420.816 91.5C420.816 92.7427 420.816 94.4267 421.753 95.4014C422.287 95.976 423.056 96.3014 423.84 96.3014C424.68 96.3014 425.448 95.996 425.884 95.44C426.231 95.0187 426.44 94.5413 426.5 93.9467H429.025C428.911 95.0187 428.505 96.112 427.724 96.912Z" fill="#8BCF25"/>
<path d="M438.131 87.596C437.597 87.02 436.773 86.696 435.987 86.696C435.204 86.696 434.381 87.02 433.847 87.596C432.907 88.572 432.867 90.2547 432.867 91.5C432.867 92.7427 432.907 94.408 433.847 95.3827C434.381 95.9573 435.204 96.2813 435.987 96.2813C436.773 96.2813 437.597 95.9573 438.131 95.3827C439.071 94.408 439.107 92.7427 439.107 91.5C439.107 90.2547 439.071 88.572 438.131 87.596ZM439.891 96.9907C438.86 98.0227 437.441 98.52 435.987 98.52C434.532 98.52 433.119 98.0227 432.085 96.9907C430.615 95.5174 430.364 93.7174 430.364 91.5C430.364 89.2787 430.615 87.4627 432.085 85.9894C433.119 84.9534 434.532 84.4574 435.987 84.4574C437.441 84.4574 438.86 84.9534 439.891 85.9894C441.364 87.4627 441.616 89.2787 441.616 91.5C441.616 93.7174 441.364 95.5174 439.891 96.9907Z" fill="#8BCF25"/>
<path d="M452.309 98.272L446.435 88.956V98.272H444.004V84.7053H446.625L452.42 93.892V84.7053H454.855V98.272H452.309Z" fill="#8BCF25"/>
<path d="M466.772 97.068C465.739 98.1 464.151 98.52 462.485 98.52C461.052 98.52 459.537 98.1374 458.431 97.124C457.628 96.396 457.016 95.2467 457.016 93.9667H459.537C459.537 94.6373 459.847 95.2293 460.249 95.632C460.823 96.2067 461.741 96.3587 462.525 96.3587C463.463 96.3587 464.361 96.168 464.879 95.632C465.185 95.3067 465.413 94.9813 465.413 94.3293C465.413 93.3347 464.649 92.8774 463.809 92.724C462.888 92.5507 461.701 92.512 460.805 92.3587C458.927 92.0534 457.359 90.8294 457.359 88.572C457.359 87.5 457.836 86.6014 458.545 85.892C459.444 85.012 460.937 84.4574 462.525 84.4574C463.976 84.4574 465.396 84.9147 466.315 85.7774C467.115 86.544 467.671 87.5387 467.692 88.668H465.167C465.145 88.1894 464.896 87.672 464.572 87.328C464.133 86.8694 463.232 86.6014 462.507 86.6014C461.741 86.6014 460.86 86.7733 460.307 87.3453C460.021 87.6547 459.847 87.9974 459.847 88.4947C459.847 89.3747 460.42 89.8347 461.224 89.968C462.084 90.1027 463.289 90.1987 464.172 90.3133C466.197 90.5987 467.903 91.9187 467.903 94.236C467.903 95.496 467.443 96.396 466.772 97.068Z" fill="#8BCF25"/>
<path d="M475.059 98.52C471.555 98.52 469.739 96.3014 469.739 93.068V84.7054H472.205V93.028C472.205 94.9627 473.085 96.2813 475.059 96.2813C477.028 96.2813 477.909 94.9627 477.909 93.028V84.7054H480.376V93.068C480.376 96.3014 478.557 98.52 475.059 98.52Z" fill="#8BCF25"/>
<path d="M483.165 98.272V84.7053H485.64V95.9373H491.931V98.272H483.165Z" fill="#8BCF25"/>
<path d="M496.695 87.0013V98.272H494.224V87.0013H490.208V84.7053H500.713V87.0013H496.695Z" fill="#8BCF25"/>
<path d="M502.419 98.272V84.7053H504.921V98.272H502.419Z" fill="#8BCF25"/>
<path d="M516.401 98.272L510.528 88.956V98.272H508.099V84.7053H510.72L516.517 93.892V84.7053H518.947V98.272H516.401Z" fill="#8BCF25"/>
<path d="M530.825 98.272L530.54 96.7799C530.137 97.5639 528.836 98.5013 527.135 98.52C525.565 98.5413 524.168 98.1373 523.097 97.0093C521.68 95.536 521.339 93.7173 521.339 91.5C521.339 89.2786 521.625 87.5186 523.097 86.0466C524.129 85.0119 525.683 84.4573 527.135 84.4573C528.797 84.4573 530.233 85.068 531.149 86.0066C531.823 86.696 532.319 87.5573 532.395 88.744H529.869C529.831 88.208 529.565 87.8453 529.275 87.5C528.797 86.9453 528.051 86.676 527.116 86.676C526.329 86.676 525.429 87.0199 524.897 87.5959C523.957 88.5719 523.843 90.2546 523.843 91.5C523.843 92.7426 523.976 94.4826 524.913 95.4613C525.451 96.0333 526.329 96.3213 527.116 96.3213C527.993 96.3213 528.685 96.0146 529.144 95.536C529.869 94.7706 530.024 93.9293 530.024 92.8959H526.792V90.8479H532.413V98.272H530.825Z" fill="#8BCF25"/>
<defs>
<linearGradient id="paint0_linear" x1="13.94" y1="51.288" x2="13.94" y2="91.2241" gradientUnits="userSpaceOnUse">
<stop stop-color="#2D2B2C"/>
<stop offset="0.274742" stop-color="#2D2B2C"/>
<stop offset="1" stop-color="#838387"/>
</linearGradient>
<linearGradient id="paint1_linear" x1="10.012" y1="40.7388" x2="56.9542" y2="14.6611" gradientUnits="userSpaceOnUse">
<stop stop-color="#2D2B2C"/>
<stop offset="0.499952" stop-color="#2D2B2C"/>
<stop offset="1" stop-color="#838387"/>
</linearGradient>
<linearGradient id="paint2_linear" x1="56.2626" y1="23.6415" x2="109.963" y2="23.6415" gradientUnits="userSpaceOnUse">
<stop stop-color="#3E742E"/>
<stop offset="1" stop-color="#5CB034"/>
</linearGradient>
<linearGradient id="paint3_linear" x1="83.1133" y1="62.3348" x2="109.962" y2="62.3348" gradientUnits="userSpaceOnUse">
<stop stop-color="#3E742E"/>
<stop offset="1" stop-color="#5CB034"/>
</linearGradient>
<linearGradient id="paint4_linear" x1="11.168" y1="85.8814" x2="57.035" y2="113.541" gradientUnits="userSpaceOnUse">
<stop stop-color="#2D2B2C"/>
<stop offset="0.499952" stop-color="#2D2B2C"/>
<stop offset="1" stop-color="#838387"/>
</linearGradient>
<linearGradient id="paint5_linear" x1="56.536" y1="104.068" x2="109.259" y2="102.75" gradientUnits="userSpaceOnUse">
<stop stop-color="#3E742E"/>
<stop offset="1" stop-color="#5CB034"/>
</linearGradient>
<linearGradient id="paint6_linear" x1="160.371" y1="65.164" x2="189.035" y2="64.4472" gradientUnits="userSpaceOnUse">
<stop stop-color="#3E742E"/>
<stop offset="1" stop-color="#5CB034"/>
</linearGradient>
</defs>
</svg>
